<?xml version="1.0" encoding="UTF-8" standalone="no"?>
<!-- Created with Inkscape (http://www.inkscape.org/) -->

<svg
   xmlns:dc="http://purl.org/dc/elements/1.1/"
   xmlns:cc="http://creativecommons.org/ns#"
   xmlns:rdf="http://www.w3.org/1999/02/22-rdf-syntax-ns#"
   xmlns:svg="http://www.w3.org/2000/svg"
   xmlns="http://www.w3.org/2000/svg"
   xmlns:xlink="http://www.w3.org/1999/xlink"
   xmlns:sodipodi="http://sodipodi.sourceforge.net/DTD/sodipodi-0.dtd"
   xmlns:inkscape="http://www.inkscape.org/namespaces/inkscape"
   width="102.99141mm"
   height="3.5096364mm"
   viewBox="0 0 102.99141 3.5096364"
   version="1.1"
   id="svg8"
   inkscape:version="0.92.3 (2405546, 2018-03-11)"
   sodipodi:docname="sep-palette.svg">
  <defs
     id="defs2">
    <linearGradient
       id="linearGradient1064"
       inkscape:collect="always">
      <stop
         id="stop1060"
         offset="0"
         style="stop-color:#41963c;stop-opacity:1" />
      <stop
         id="stop1062"
         offset="1"
         style="stop-color:#bcfd7e;stop-opacity:1" />
    </linearGradient>
    <linearGradient
       inkscape:collect="always"
       xlink:href="#linearGradient1064"
       id="linearGradient1053"
       x1="-200.40031"
       y1="-138.87846"
       x2="-97.408913"
       y2="-138.87846"
       gradientUnits="userSpaceOnUse" />
  </defs>
  <sodipodi:namedview
     id="base"
     pagecolor="#ffffff"
     bordercolor="#666666"
     borderopacity="1.0"
     inkscape:pageopacity="0.0"
     inkscape:pageshadow="2"
     inkscape:zoom="1.4"
     inkscape:cx="332.28306"
     inkscape:cy="-12.100197"
     inkscape:document-units="mm"
     inkscape:current-layer="layer1"
     showgrid="false"
     inkscape:window-width="1920"
     inkscape:window-height="1168"
     inkscape:window-x="1920"
     inkscape:window-y="0"
     inkscape:window-maximized="1"
     fit-margin-top="0"
     fit-margin-left="0"
     fit-margin-right="0"
     fit-margin-bottom="0" />
  <metadata
     id="metadata5">
    <rdf:RDF>
      <cc:Work
         rdf:about="">
        <dc:format>image/svg+xml</dc:format>
        <dc:type
           rdf:resource="http://purl.org/dc/dcmitype/StillImage" />
        <dc:title></dc:title>
      </cc:Work>
    </rdf:RDF>
  </metadata>
  <g
     inkscape:label="Calque 1"
     inkscape:groupmode="layer"
     id="layer1"
     transform="translate(200.40032,140.63329)">
    <path
       style="fill:url(#linearGradient1053);fill-opacity:1;stroke:none;stroke-width:0.1;stroke-linecap:butt;stroke-linejoin:miter;stroke-miterlimit:4;stroke-dasharray:none;stroke-opacity:1"
       d="m -200.05711,-140.51502 c 0.36968,-0.16778 3.59944,0.35481 5.36209,0.31739 1.47789,-0.0314 3.02657,-0.39992 4.50444,-0.43228 2.49122,-0.0546 6.05746,0.57143 10.06175,0.4991 2.87578,-0.052 5.67637,-0.31362 8.55262,-0.31739 7.11175,-0.009 14.26984,0.83107 21.38157,0.85193 7.62265,0.0224 15.22893,-0.83534 22.85154,-0.86863 4.56777,-0.0199 9.12975,0.40511 13.69756,0.40091 2.50686,-0.002 5.0268,-0.21819 7.53366,-0.21716 3.41348,0.001 5.15725,0.0635 5.82147,0.1921 0.315364,0.0611 0.817393,0.3006 1.12754,0.3842 0.419729,0.11314 1.177627,0.10482 1.695492,0.10023 -0.370712,0.24886 -0.819655,0.35229 -1.26118,0.39255 -0.562221,0.0513 -1.239741,-0.16786 -1.678792,-0.26727 -0.37703,-0.0854 -1.10852,-0.035 -1.11083,0.18375 -0.002,0.20732 0.60076,0.29727 0.93544,0.37584 0.48379,0.11359 1.518028,0.0348 1.987819,0.12528 0.402086,0.0775 0.704354,0.15058 1.186006,0.30069 -0.32177,0.067 -0.66821,0.10892 -0.935441,0.12528 -0.324058,0.0199 -0.893636,-0.049 -1.302939,-0.0585 -0.545985,-0.0127 -1.276545,0.0371 -1.728895,-0.0167 -0.58955,-0.10138 -1.63331,-0.16235 -2.56413,-0.16705 -4.43992,-0.0561 -7.06993,0.62825 -13.0795,0.68488 -3.39706,0.032 -6.7927,-0.24282 -10.18964,-0.20045 -7.49042,0.0934 -14.95968,0.97865 -22.45065,1.00226 -6.39685,0.0202 -12.71289,-0.71904 -19.10976,-0.73499 -4.01126,-0.01 -8.01182,0.49445 -12.02308,0.48358 -2.8753,-0.008 -5.7691,-0.45709 -8.64307,-0.36951 -2.01358,0.0614 -4.55229,0.51157 -5.76848,0.47893 -0.70593,-0.0189 -1.66586,-0.19479 -2.42213,-0.19209 -0.55099,0.002 -1.15008,0.28873 -1.67879,0.13363 -0.49893,-0.14637 -0.9002,-0.65896 -1.03567,-1.16096 -0.13721,-0.50844 -0.0334,-1.88549 0.28398,-2.02956 z"
       id="path1037"
       inkscape:connector-curvature="0"
       sodipodi:nodetypes="ssssssssssscssssscssccsssssssssss" />
  </g>
</svg>
