<?xml version="1.0" encoding="UTF-8" standalone="no"?>
<!-- Created with Inkscape (http://www.inkscape.org/) -->

<svg
   xmlns:dc="http://purl.org/dc/elements/1.1/"
   xmlns:cc="http://creativecommons.org/ns#"
   xmlns:rdf="http://www.w3.org/1999/02/22-rdf-syntax-ns#"
   xmlns:svg="http://www.w3.org/2000/svg"
   xmlns="http://www.w3.org/2000/svg"
   xmlns:sodipodi="http://sodipodi.sourceforge.net/DTD/sodipodi-0.dtd"
   xmlns:inkscape="http://www.inkscape.org/namespaces/inkscape"
   width="77.172272mm"
   height="2.7820494mm"
   viewBox="0 0 77.172272 2.7820494"
   version="1.1"
   id="svg8"
   inkscape:version="0.92.3 (2405546, 2018-03-11)"
   sodipodi:docname="sep-note.svg">
  <defs
     id="defs2" />
  <sodipodi:namedview
     id="base"
     pagecolor="#ffffff"
     bordercolor="#666666"
     borderopacity="1.0"
     inkscape:pageopacity="0.0"
     inkscape:pageshadow="2"
     inkscape:zoom="2.8"
     inkscape:cx="194.81049"
     inkscape:cy="7.8869083"
     inkscape:document-units="mm"
     inkscape:current-layer="layer1"
     showgrid="false"
     inkscape:window-width="1920"
     inkscape:window-height="1168"
     inkscape:window-x="1920"
     inkscape:window-y="0"
     inkscape:window-maximized="1"
     fit-margin-top="0"
     fit-margin-left="0"
     fit-margin-right="0"
     fit-margin-bottom="0" />
  <metadata
     id="metadata5">
    <rdf:RDF>
      <cc:Work
         rdf:about="">
        <dc:format>image/svg+xml</dc:format>
        <dc:type
           rdf:resource="http://purl.org/dc/dcmitype/StillImage" />
        <dc:title></dc:title>
      </cc:Work>
    </rdf:RDF>
  </metadata>
  <g
     inkscape:label="Calque 1"
     inkscape:groupmode="layer"
     id="layer1"
     transform="translate(-5.4149381,-13.436782)">
    <path
       style="fill:#3c1218;fill-opacity:0.97737558;stroke:none;stroke-width:0.26458332px;stroke-linecap:butt;stroke-linejoin:miter;stroke-opacity:1"
       d="m 6.0664773,13.637134 c 0.33067,-0.0963 1.90552,-0.23553 2.87459,-0.19222 0.62191,0.0278 1.5818897,0.16101 2.2036397,0.19234 0.85808,0.0432 1.95148,0.0989 3.09855,0.0786 1.01477,-0.018 3.77352,0.14364 4.78833,0.12826 4.8819,-0.12396 8.10077,-0.19059 12.68442,-0.20283 4.70014,-0.002 9.39931,0.32945 14.09847,0.23386 6.48318,-0.13188 16.51475,0.31924 24.6222,0.50113 1.24418,0.0279 3.98938,-0.088 5.43297,-0.21067 1.58589,-0.13473 4.42202,0.18817 5.36254,0.35435 0.55837,0.0987 1.0858,0.48125 1.33819,1.10626 0.13004,0.32201 -0.52534,0.43126 -0.86572,0.50014 -0.612,0.12384 -2.51871,-0.14275 -3.78669,-0.10977 -2.66903,0.0694 -5.31974,-0.1688 -8.0055,-0.17707 -1.58534,-0.005 -5.59126,0.20057 -6.94263,0.21554 -4.04209,0.0448 -8.60847,0.13768 -11.68207,0.16275 -3.3882,0.0276 -42.4399897,-0.50551 -45.3632697,-1.03972 -0.31376,-0.0573 -0.63601,-0.18652 -0.45937,-0.83939 0.17664,-0.65288 0.44626,-0.65641 0.60135,-0.70157 z"
       id="path840"
       inkscape:connector-curvature="0"
       sodipodi:nodetypes="csssccsssssssssssssc" />
  </g>
</svg>
